first trial
nRows=22
nColumns=38

# SIMM Motion File Header:
name Sujet_07_velo_60.mvnx
datacolumns 38
datarows 22
otherdata 1
range 11.6830 12.0330
endheader
time pelvis_tilt  pelvis_list  pelvis_rotation  pelvis_tx  pelvis_ty  pelvis_tz  hip_flexion_r  hip_adduction_r  hip_rotation_r  knee_angle_r  ankle_angle_r  subtalar_angle_r  mtp_angle_r  hip_flexion_l  hip_adduction_l  hip_rotation_l  knee_angle_l  ankle_angle_l  subtalar_angle_l  mtp_angle_l  lumbar_extension  lumbar_bending  lumbar_rotation  arm_flex_r  arm_add_r  arm_rot_r  elbow_flex_r  pro_sup_r  wrist_flex_r  wrist_dev_r  arm_flex_l  arm_add_l  arm_rot_l  elbow_flex_l  pro_sup_l  wrist_flex_l  wrist_dev_l
11.6830	-25.0523	-1.9931	-51.7224	0.0000	1.2500	-0.0000	74.5045	-3.3450	-7.8968	56.6409	-0.4321	-4.0696	-0.0000	66.2449	-10.8188	-0.6773	82.0230	-2.2768	4.4729	0.0000	-17.9072	-1.6706	-1.5029	100.6430	-0.0986	23.7350	7.8116	64.6175	-48.6846	-43.9469	94.0637	-7.9541	42.7912	4.8806	41.1961	-43.4853	-45.2364	
11.7000	-24.9901	-1.8922	-51.4013	0.0000	1.2500	-0.0000	72.2379	-3.6114	-7.8413	53.1750	-3.0404	-3.3607	-0.0000	68.1509	-10.6298	-0.2266	85.2726	-1.8055	4.8071	-0.0000	-17.9290	-1.6522	-1.5759	100.5960	-0.1964	23.7383	7.8273	64.5362	-48.7084	-44.0556	94.2790	-7.9110	42.8014	4.8601	41.4218	-43.7635	-45.3527	
11.7170	-24.9673	-1.8170	-51.1424	0.0000	1.2500	-0.0000	69.9705	-3.8222	-7.3842	49.7741	-5.7968	-2.6282	0.0000	70.1070	-10.4301	0.3671	88.3258	-1.2812	5.0512	-0.0000	-17.9279	-1.6371	-1.6297	100.4729	-0.3130	23.6762	7.8868	64.4688	-48.7295	-44.1427	94.5831	-7.8876	42.9160	4.8090	41.6308	-44.1809	-45.5579	
11.7330	-24.9760	-1.7595	-50.9123	0.0000	1.2500	-0.0000	67.7006	-4.0294	-6.6270	46.4532	-8.6804	-1.8830	0.0000	72.1092	-10.1960	1.0627	91.1771	-0.7312	5.2092	0.0000	-17.9097	-1.6192	-1.6735	100.3115	-0.4466	23.5876	7.9733	64.4064	-48.7497	-44.2237	94.9234	-7.8697	43.0986	4.7455	41.8177	-44.6754	-45.8157	
11.7500	-25.0114	-1.6990	-50.6155	0.0000	1.2500	-0.0000	65.4890	-4.2831	-5.7342	43.3472	-11.4664	-1.2701	0.0000	74.1466	-9.8760	1.8111	93.7648	-0.1856	5.2338	-0.0000	-17.8803	-1.5771	-1.7354	100.1807	-0.5910	23.5145	8.0603	64.3382	-48.7631	-44.3028	95.1809	-7.8302	43.3300	4.7237	41.9148	-45.1038	-46.0438	
11.7670	-25.0814	-1.6437	-50.2085	0.0000	1.2500	-0.0000	63.3328	-4.6034	-4.6257	40.4471	-14.1514	-0.8717	0.0000	76.2486	-9.4311	2.6086	96.0914	0.3245	5.0897	-0.0000	-17.8371	-1.4894	-1.8270	100.1190	-0.7416	23.4752	8.1429	64.2637	-48.7612	-44.3773	95.2891	-7.7440	43.6237	4.7648	41.8579	-45.4214	-46.2189	
11.7830	-25.1778	-1.5845	-49.7344	0.0000	1.2500	-0.0000	61.2325	-4.9803	-3.3914	37.7366	-16.7362	-0.6012	0.0000	78.3799	-8.8890	3.4405	98.1526	0.8299	4.8104	0.0000	-17.7823	-1.3777	-1.9369	100.0881	-0.9035	23.4514	8.2262	64.1835	-48.7526	-44.4500	95.3144	-7.6376	43.9659	4.8493	41.7115	-45.6744	-46.3660	
11.8000	-25.2721	-1.4759	-49.2275	0.0000	1.2500	-0.0000	59.2528	-5.3825	-2.4550	35.3630	-19.0040	-0.3619	0.0000	80.4350	-8.3079	4.2400	99.8780	1.3919	4.4539	-0.0000	-17.7300	-1.2850	-2.0592	100.0419	-1.0855	23.4307	8.2986	64.0886	-48.7573	-44.5336	95.3370	-7.5624	44.2957	4.9692	41.6000	-45.8578	-46.4769	
11.8170	-25.3506	-1.2815	-48.6733	0.0000	1.2500	-0.0000	57.3739	-5.7922	-1.9642	33.3484	-20.9104	-0.1043	0.0000	82.4185	-7.6978	5.0342	101.2693	2.0171	4.0313	0.0000	-17.6867	-1.2288	-2.1974	99.9614	-1.3111	23.3964	8.3549	63.9823	-48.7892	-44.6424	95.3926	-7.5467	44.6143	5.1325	41.5567	-45.9577	-46.5475	
11.8330	-25.4253	-1.0376	-48.0860	0.0000	1.2500	-0.0000	55.6134	-6.1911	-1.7714	31.6960	-22.5012	0.1149	0.0000	84.3284	-7.0579	5.7931	102.3272	2.6970	3.5367	0.0000	-17.6462	-1.1916	-2.3479	99.8650	-1.5565	23.3650	8.4005	63.8614	-48.8342	-44.7618	95.4463	-7.5617	44.9206	5.3304	41.5477	-45.9880	-46.5822	
11.8500	-25.5059	-0.8084	-47.5448	0.0000	1.2500	-0.0000	54.0935	-6.5300	-1.8452	30.5494	-23.6918	0.2331	-0.0000	86.0534	-6.4480	6.3813	102.9811	3.4697	3.0031	-0.0000	-17.6042	-1.1647	-2.4947	99.7627	-1.7584	23.3741	8.4400	63.7077	-48.8707	-44.8615	95.4719	-7.5719	45.1495	5.5275	41.5967	-45.9845	-46.5852	
11.8670	-25.5970	-0.6155	-47.0800	0.0000	1.2500	-0.0000	52.8338	-6.7869	-2.2262	29.9373	-24.4543	0.2160	0.0000	87.5778	-5.8980	6.7464	103.2044	4.3811	2.4639	0.0000	-17.5555	-1.1485	-2.6353	99.6331	-1.8826	23.4694	8.4723	63.4731	-48.8915	-44.9276	95.4468	-7.5723	45.2619	5.7209	41.7390	-45.9450	-46.5503	
11.8830	-25.6950	-0.4372	-46.6610	0.0000	1.2500	-0.0000	51.8192	-6.9718	-2.8566	29.8354	-24.8135	0.0999	0.0000	88.9218	-5.3982	6.9600	103.0230	5.3852	1.8945	-0.0000	-17.5053	-1.1425	-2.7720	99.4985	-1.9636	23.6056	8.4977	63.2055	-48.9038	-44.9740	95.3932	-7.5681	45.2971	5.9122	41.9395	-45.8717	-46.4838	
11.9000	-25.8002	-0.2733	-46.2753	0.0000	1.2500	-0.0000	51.1205	-7.0970	-3.5503	30.3081	-24.7634	-0.0718	0.0000	90.0282	-4.9515	7.0830	102.4428	6.3817	1.2349	0.0000	-17.4643	-1.1357	-2.8954	99.4351	-2.0417	23.6845	8.5242	63.0304	-48.9081	-45.0112	95.3510	-7.5384	45.3074	6.0731	42.1168	-45.8062	-46.4086	
11.9170	-25.9222	-0.1177	-45.9015	0.0000	1.2500	-0.0000	50.7837	-7.1595	-4.2811	31.4187	-24.2276	-0.3509	0.0000	90.8938	-4.5459	7.1445	101.4417	7.3910	0.3619	-0.0000	-17.4362	-1.1229	-3.0053	99.4975	-2.1320	23.6251	8.5592	63.0372	-48.9015	-45.0420	95.3346	-7.4655	45.3033	6.1908	42.2456	-45.7649	-46.3308	
11.9330	-26.0516	0.0237	-45.5609	0.0000	1.2500	-0.0000	50.7663	-7.1767	-5.0664	33.0982	-23.2855	-0.6997	0.0000	91.5239	-4.1982	7.1290	100.0426	8.3894	-0.5988	0.0000	-17.4171	-1.1090	-3.1018	99.6308	-2.2196	23.5085	8.5961	63.1368	-48.8868	-45.0639	95.3296	-7.3670	45.2742	6.2786	42.3520	-45.7314	-46.2443	
11.9500	-26.1594	0.1328	-45.3042	0.0000	1.2500	-0.0000	51.0036	-7.1982	-5.7885	35.2181	-22.1620	-0.9389	0.0000	91.8737	-3.9513	7.0316	98.3202	9.2154	-1.3441	-0.0000	-17.4048	-1.0986	-3.1753	99.7467	-2.3000	23.4793	8.6230	63.1870	-48.8728	-45.0798	95.3315	-7.2750	45.2416	6.3479	42.4319	-45.6979	-46.1530	
11.9670	-26.2402	0.2080	-45.1558	0.0000	1.2500	-0.0000	51.5001	-7.2576	-6.4666	37.8093	-20.8452	-0.9984	0.0000	91.9273	-3.8256	6.8824	96.2689	9.8502	-1.7346	-0.0000	-17.3962	-1.0965	-3.2219	99.8019	-2.3771	23.6346	8.6352	63.1033	-48.8655	-45.0960	95.3411	-7.1953	45.2134	6.3989	42.4746	-45.6717	-46.0551	
11.9830	-26.3003	0.2500	-45.0921	0.0000	1.2500	-0.0000	52.2484	-7.3307	-7.0803	40.8417	-19.3410	-0.9512	0.0000	91.7010	-3.7993	6.6582	93.8925	10.3201	-1.9216	0.0000	-17.3943	-1.0979	-3.2456	99.8402	-2.4466	23.8773	8.6373	62.9704	-48.8588	-45.1063	95.3579	-7.1220	45.1816	6.4312	42.4908	-45.6456	-45.9524	
12.0000	-26.3284	0.2440	-45.0920	0.0000	1.2500	-0.0000	53.1644	-7.3735	-7.4555	44.1032	-17.8987	-0.8280	-0.0000	91.1989	-3.8506	6.2721	91.2792	10.5346	-2.0458	-0.0000	-17.4070	-1.0926	-3.2486	99.9039	-2.4912	24.0606	8.6320	62.8997	-48.8424	-45.0949	95.3760	-7.0699	45.1426	6.4552	42.5085	-45.5906	-45.8547	
12.0170	-26.3183	0.1771	-45.1483	0.0000	1.2500	-0.0000	54.2449	-7.3525	-7.4824	47.5903	-16.5778	-0.6128	-0.0000	90.4142	-3.9733	5.6658	88.4374	10.4320	-2.1444	-0.0000	-17.4382	-1.0735	-3.2314	100.0217	-2.4977	24.1070	8.6206	62.9531	-48.8070	-45.0462	95.3905	-7.0488	45.0834	6.4841	42.5487	-45.4839	-45.7598	
12.0330	-26.2761	0.0623	-45.2683	0.0000	1.2500	-0.0000	55.4928	-7.2887	-7.2765	51.3162	-15.3170	-0.3221	0.0000	89.3523	-4.1621	4.8919	85.3608	10.0736	-2.1897	-0.0000	-17.4840	-1.0479	-3.1936	100.1647	-2.4794	24.0938	8.6021	63.0688	-48.7619	-44.9760	95.4063	-7.0490	45.0170	6.5047	42.5902	-45.3482	-45.6699	
